<?xml version="1.0" standalone="no"?>
<!DOCTYPE svg PUBLIC "-//W3C//DTD SVG 20010904//EN"
 "http://www.w3.org/TR/2001/REC-SVG-20010904/DTD/svg10.dtd">
<svg version="1.0" xmlns="http://www.w3.org/2000/svg"
 width="475.000000pt" height="475.000000pt" viewBox="0 0 475.000000 475.000000"
 preserveAspectRatio="xMidYMid meet">
<metadata>
Created by potrace 1.14, written by Peter Selinger 2001-2017
</metadata>
<g transform="translate(0.000000,475.000000) scale(0.100000,-0.100000)"
fill="#000000" stroke="none">
<path d="M1950 4503 c-1 -5 -15 -24 -32 -43 -17 -19 -28 -28 -24 -20 4 8 1 6
-6 -5 -19 -28 -108 -116 -147 -145 -19 -14 -43 -33 -55 -43 -34 -30 -149 -102
-158 -99 -4 1 -8 -3 -8 -10 0 -6 -3 -8 -6 -5 -4 3 -16 1 -28 -5 -11 -7 -24
-13 -28 -14 -5 -1 -11 -3 -15 -4 -5 -1 -11 -2 -15 -1 -5 0 -8 -3 -8 -7 0 -5
-6 -9 -12 -10 -7 0 -26 -4 -43 -7 -16 -3 -70 -8 -120 -10 -130 -7 -230 -22
-289 -45 -13 -5 -27 -6 -30 -3 -3 4 -6 1 -6 -6 0 -7 -6 -11 -12 -8 -7 2 -29
-4 -49 -14 -20 -10 -39 -15 -43 -12 -3 4 -6 1 -6 -5 0 -7 -7 -12 -15 -12 -8 0
-15 -4 -15 -10 0 -5 -3 -9 -7 -8 -11 3 -97 -43 -105 -56 -4 -6 -8 -7 -8 -2 0
5 -8 -1 -19 -12 -10 -12 -26 -22 -35 -22 -9 0 -16 -4 -16 -10 0 -5 -21 -24
-47 -42 -27 -17 -61 -45 -78 -60 -16 -15 -34 -28 -39 -28 -5 0 -16 -8 -25 -18
-9 -11 -27 -24 -39 -31 -29 -16 -24 -21 24 -27 22 -3 41 -9 42 -14 2 -6 7 -8
11 -6 4 3 15 -8 25 -25 17 -28 17 -29 -3 -30 -12 -1 -24 -3 -28 -4 -5 -2 -18
-6 -30 -10 -13 -4 -20 -11 -17 -16 3 -5 -2 -9 -11 -9 -9 0 -14 -4 -10 -9 3 -5
-4 -12 -15 -16 -11 -4 -18 -10 -15 -15 3 -5 -2 -16 -11 -24 -8 -9 -12 -16 -8
-16 3 0 1 -7 -6 -15 -7 -8 -10 -15 -6 -15 3 0 0 -17 -9 -37 -8 -21 -9 -29 -2
-19 19 30 70 82 92 93 11 6 38 9 60 7 73 -7 259 -7 322 0 61 6 62 6 58 -16 -3
-13 -9 -24 -15 -26 -5 -2 -10 -9 -10 -16 0 -7 -14 -27 -30 -45 -17 -17 -28
-31 -26 -31 3 0 -12 -17 -32 -38 -20 -21 -39 -37 -40 -36 -4 2 -39 -26 -67
-53 -7 -7 -15 -9 -19 -6 -3 4 -6 1 -6 -6 0 -7 -4 -9 -10 -6 -5 3 -10 1 -10 -5
0 -6 -5 -8 -10 -5 -6 3 -13 -1 -16 -9 -3 -9 -10 -14 -14 -11 -5 3 -11 1 -15
-5 -4 -6 -11 -8 -16 -5 -5 4 -9 1 -9 -5 0 -6 -4 -9 -9 -5 -5 3 -12 1 -16 -5
-4 -6 -10 -8 -15 -5 -16 10 -32 -23 -20 -44 6 -12 8 -21 4 -21 -3 0 -1 -6 5
-14 6 -8 11 -18 10 -22 -1 -5 1 -25 5 -45 4 -19 9 -63 10 -97 3 -70 6 -76 24
-56 7 8 10 14 6 14 -4 0 5 11 20 25 14 13 25 26 24 29 -5 7 60 65 66 59 3 -4
6 -2 6 4 0 11 79 52 117 60 16 3 45 6 65 7 31 1 38 5 39 21 2 39 6 80 9 85 1
3 2 8 2 11 -2 10 69 71 75 65 3 -3 18 1 34 10 16 8 30 13 31 12 7 -5 108 37
108 46 0 5 3 7 6 3 4 -3 12 -1 20 6 33 30 42 35 48 30 3 -4 6 1 6 10 0 9 5 19
12 23 7 5 9 2 4 -7 -4 -8 0 -5 8 5 9 11 16 24 16 29 0 4 5 5 10 2 6 -3 10 0
10 8 0 8 6 20 14 26 8 7 17 29 21 50 3 21 12 38 18 39 7 1 31 3 54 5 l42 4 3
-213 3 -214 -26 -11 c-15 -6 -35 -12 -45 -14 -11 -2 -21 -4 -24 -5 -3 -1 -8
-2 -12 -1 -5 0 -8 -4 -8 -10 0 -5 -4 -8 -9 -4 -5 3 -13 0 -16 -6 -4 -5 -13 -8
-21 -5 -8 3 -14 1 -14 -4 0 -6 -4 -10 -9 -10 -5 0 -22 -5 -38 -12 -15 -6 -30
-12 -33 -13 -3 0 -16 -7 -30 -15 -14 -7 -25 -12 -25 -11 0 6 -175 -81 -180
-90 -4 -5 -11 -7 -16 -4 -5 4 -9 1 -9 -4 0 -6 -6 -11 -14 -11 -7 0 -19 -7 -26
-15 -7 -9 -15 -14 -17 -11 -4 4 -59 -29 -88 -52 -5 -4 -28 -19 -50 -32 -22
-13 -42 -26 -45 -30 -3 -3 -23 -18 -45 -35 -53 -39 -62 -47 -117 -99 -27 -24
-48 -42 -48 -40 0 3 -15 -12 -32 -33 -35 -41 -96 -109 -114 -127 -6 -6 -12
-15 -14 -21 -1 -5 -13 -24 -26 -41 -13 -17 -24 -36 -24 -41 0 -6 -7 -14 -16
-17 -8 -3 -13 -10 -10 -15 3 -5 -1 -14 -9 -21 -8 -7 -13 -16 -10 -20 2 -4 -5
-17 -16 -28 -11 -12 -17 -22 -14 -22 3 0 0 -10 -7 -22 -7 -13 -13 -25 -14 -28
0 -3 -7 -21 -15 -40 -7 -19 -12 -38 -11 -42 1 -5 -2 -8 -8 -8 -6 0 -9 -3 -9
-8 1 -4 0 -9 -1 -12 -1 -3 -3 -12 -5 -20 -2 -8 -7 -26 -10 -40 -3 -14 -8 -36
-11 -50 -2 -14 -6 -36 -9 -50 -23 -122 -23 -349 0 -500 4 -25 9 -56 11 -70 7
-51 20 -119 24 -130 1 -3 2 -9 1 -13 -1 -4 6 -21 14 -37 9 -17 13 -30 11 -30
-6 0 23 -102 33 -115 4 -5 18 -37 31 -70 13 -33 29 -63 34 -67 6 -4 8 -8 4 -8
-4 0 -1 -8 7 -17 8 -10 15 -22 16 -28 0 -5 10 -21 22 -34 12 -13 15 -21 7 -16
-8 5 -4 -3 10 -17 36 -35 60 -67 60 -77 0 -6 9 -13 20 -16 11 -3 20 -12 20
-18 0 -7 16 -23 35 -36 19 -13 32 -27 29 -32 -3 -5 2 -9 10 -9 9 0 16 -4 16
-8 0 -9 66 -53 130 -88 19 -10 38 -23 42 -29 4 -5 8 -6 8 -2 0 5 16 -1 35 -13
19 -12 35 -18 35 -15 0 4 7 2 15 -5 8 -7 15 -9 15 -5 0 5 9 0 19 -9 11 -10 24
-15 30 -12 5 4 12 2 16 -4 4 -6 11 -8 16 -4 5 3 16 0 24 -6 8 -6 19 -9 25 -5
5 3 10 2 10 -2 0 -5 8 -9 18 -9 9 -1 31 -4 47 -8 147 -34 500 -40 645 -10 19
3 45 7 58 7 12 1 22 4 22 7 0 4 6 7 13 7 20 1 61 11 88 21 15 6 30 8 33 5 3
-4 6 -1 6 5 0 7 3 11 8 10 13 -3 66 14 81 26 8 6 15 10 15 9 3 -7 46 11 46 19
0 5 4 6 10 3 5 -3 10 -1 10 5 0 6 5 8 10 5 6 -3 10 -1 10 4 0 6 3 10 8 9 4 -1
18 4 31 11 16 9 54 13 108 12 l83 -2 0 53 c0 63 9 100 21 92 5 -3 9 -1 9 4 0
5 15 26 33 45 63 69 75 85 70 91 -3 3 2 8 11 12 9 3 16 12 16 20 0 8 5 14 12
14 6 0 8 3 5 6 -4 4 3 20 14 35 11 16 17 29 12 29 -4 0 -3 4 3 8 9 6 22 37 60
137 11 30 23 74 29 110 2 11 6 31 10 45 16 71 28 200 27 290 -1 83 -17 274
-27 320 -3 14 -8 43 -11 65 -12 83 -18 107 -27 123 -5 6 -5 18 -1 25 5 9 4 9
-5 1 -7 -6 -14 -33 -16 -60 -4 -46 -7 -62 -21 -117 -3 -12 -6 -26 -7 -32 -7
-28 -53 -134 -71 -160 -28 -41 -72 -85 -85 -85 -6 0 -11 -5 -11 -11 0 -5 -4
-7 -10 -4 -5 3 -10 1 -10 -4 0 -6 -7 -11 -15 -11 -14 0 -15 44 -14 360 1 300
4 360 15 360 23 0 29 1 39 10 6 5 24 12 40 15 17 3 36 7 42 9 7 1 170 -156
363 -348 l350 -351 90 90 c90 90 106 97 115 49 2 -11 4 -19 5 -19 2 0 3 -5 15
-55 26 -111 26 -520 -1 -596 -6 -15 -4 -17 6 -7 8 7 15 21 16 30 1 10 5 32 8
48 4 17 9 39 10 50 2 11 4 20 6 20 1 0 3 11 5 25 2 14 6 36 9 50 4 14 8 36 11
50 11 55 15 76 21 100 3 14 7 35 10 48 2 12 6 32 8 45 3 12 7 33 10 47 7 30
17 77 22 105 1 11 6 31 9 45 3 14 8 36 10 50 2 14 7 36 10 50 3 14 8 36 10 50
2 14 7 36 10 50 5 26 15 76 19 98 3 15 396 412 408 412 4 0 8 -381 8 -847 0
-467 0 -901 0 -965 l0 -118 420 0 420 0 0 1690 0 1690 -298 0 -297 0 -515
-515 c-396 -396 -517 -512 -527 -503 -7 6 -13 17 -13 24 0 8 -5 14 -11 14 -5
0 -7 5 -4 10 3 6 1 10 -5 10 -7 0 -10 7 -7 15 4 8 2 17 -3 20 -14 9 -6 191 10
209 7 9 9 16 5 16 -4 0 -2 6 4 13 9 12 -2 13 -60 11 -84 -3 -121 13 -161 72
-14 21 -25 41 -22 43 2 2 0 9 -5 15 -10 12 -21 63 -25 108 -3 40 -15 46 -22
10 -4 -18 -9 -32 -13 -32 -4 0 -15 -22 -26 -50 -11 -27 -23 -50 -28 -50 -4 0
-6 -4 -2 -9 3 -6 -3 -14 -12 -20 -10 -6 -15 -11 -10 -11 9 0 -43 -80 -52 -80
-4 0 -24 17 -44 38 -32 33 -36 41 -29 67 10 37 10 35 -13 135 0 3 -7 16 -15
30 -8 14 -14 29 -15 33 0 4 -7 12 -15 17 -8 5 -11 10 -7 10 4 0 -4 11 -19 25
-15 14 -24 25 -19 25 4 0 -28 34 -71 75 -121 115 -132 125 -143 125 -6 0 -11
3 -11 8 0 4 -23 21 -51 37 -28 17 -57 35 -64 42 -7 7 -15 9 -19 6 -3 -4 -6 -1
-6 6 0 7 -4 10 -9 7 -5 -3 -12 1 -15 9 -3 8 -9 14 -13 14 -15 -3 -93 36 -93
46 0 6 11 22 24 37 14 14 22 29 19 32 -4 3 0 6 7 6 7 0 10 3 7 7 -4 3 0 15 10
25 9 10 13 18 9 18 -3 0 0 13 8 29 9 16 13 31 10 34 -3 3 -2 12 2 19 9 14 14
168 5 168 -2 0 -28 -25 -56 -55 -29 -30 -58 -55 -64 -55 -6 0 -11 -4 -11 -8 0
-10 -45 -33 -73 -39 -16 -3 -16 -1 -1 35 9 20 18 43 21 50 3 6 9 12 15 12 5 0
7 4 3 9 -3 5 1 16 9 24 8 8 13 17 10 20 -3 3 0 16 7 29 7 12 14 26 15 31 1 4
2 8 3 10 1 1 4 16 7 34 2 18 8 49 12 70 9 39 -2 93 -19 93 -5 0 -9 -3 -9 -7z
m-578 -2952 l-2 -1079 -83 3 c-45 2 -102 6 -127 10 -25 4 -51 8 -57 8 -7 0
-13 4 -13 8 0 5 -6 6 -14 3 -8 -3 -17 0 -21 5 -3 6 -11 9 -16 6 -5 -4 -9 -1
-9 4 0 6 -3 10 -8 9 -12 -5 -92 34 -92 44 0 5 -5 6 -10 3 -6 -3 -13 1 -16 9
-3 9 -10 14 -14 11 -5 -3 -13 3 -19 12 -6 10 -11 14 -11 9 0 -5 -9 1 -20 14
-11 13 -20 20 -20 16 0 -4 -11 5 -25 19 -14 14 -30 25 -35 25 -6 0 -10 8 -10
17 0 9 -3 13 -6 10 -9 -8 -194 181 -194 198 0 3 -8 14 -17 25 -10 10 -29 41
-43 67 -13 26 -27 50 -30 53 -8 7 -50 135 -57 173 -9 46 -8 344 1 392 4 22 9
49 11 60 2 11 6 31 10 45 3 14 8 32 10 40 2 8 4 17 5 20 1 3 2 9 1 14 -1 5 3
12 9 16 6 4 12 17 13 28 1 12 4 22 7 22 3 0 6 10 7 22 1 11 7 24 13 28 7 4 11
10 11 14 -1 3 6 23 15 44 10 20 16 41 15 45 0 4 6 10 14 13 8 3 13 10 10 14
-3 4 2 13 10 20 8 7 15 18 15 26 0 7 8 18 17 23 10 6 14 11 9 11 -5 0 4 12 20
26 16 15 22 23 14 19 -12 -5 -12 -4 1 7 9 7 21 23 28 36 7 12 16 20 22 17 5
-4 8 -1 7 7 -2 7 3 12 10 10 6 -1 11 2 10 6 -5 14 103 113 114 106 6 -4 9 -3
6 2 -3 5 0 15 8 22 8 7 14 10 14 5 0 -4 7 2 16 13 8 10 13 12 9 4 -4 -8 3 -4
14 10 11 14 21 21 21 15 0 -5 5 -2 11 8 6 9 14 15 20 12 5 -4 9 -1 9 4 0 6 6
11 14 11 8 0 16 3 18 8 4 9 99 57 113 57 6 0 13 4 17 9 6 9 27 16 56 18 6 1
12 4 12 7 0 5 69 30 103 37 4 1 8 2 10 4 1 1 10 3 20 5 11 2 21 6 25 9 26 26
27 -29 24 -1073z m898 -134 c0 -4 5 -5 10 -2 6 3 10 2 10 -3 0 -5 10 -14 23
-21 47 -25 71 -111 53 -192 -14 -65 -126 -269 -146 -269 -7 0 -10 481 -3 492
6 10 53 6 53 -5z"/>
<path d="M2461 1974 c0 -11 3 -14 6 -6 3 7 2 16 -1 19 -3 4 -6 -2 -5 -13z"/>
<path d="M3284 938 c-11 -32 -14 -51 -6 -44 3 4 7 12 8 19 1 7 5 20 9 30 4 9
5 17 2 17 -3 0 -9 -10 -13 -22z"/>
</g>
</svg>
